<svg id="Logo_Newest_-_No_Padding" data-name="Logo Newest - No Padding" xmlns="http://www.w3.org/2000/svg" viewBox="0 0 92.85 20.17"><defs><style>.cls-1{fill:#007d2e;}.cls-2{fill:#00535e;}</style></defs><path class="cls-1" d="M10.48,9.14c2.95.49,5.34,1.9,5.34,4.87a5.3,5.3,0,0,1-3,4.72,10.09,10.09,0,0,1-5.3,1.2H0v-.86c2.61-.25,2.76-.52,2.76-2.95V3.83c0-2.54-.28-2.76-2.76-3V0H8a8.19,8.19,0,0,1,4.72,1.07,4,4,0,0,1,1.81,3.44C14.56,7.39,12.2,8.71,10.48,9.14ZM7,8.77c3.37,0,4.75-1.35,4.75-3.87,0-2.14-1.32-3.8-4.26-3.8a3.25,3.25,0,0,0-1.72.31c-.24.18-.34.52-.34,1.5V8.77ZM5.39,16.06c0,2.21.53,2.76,2.7,2.76,2.39,0,4.72-1.29,4.72-4.5s-2.2-4.48-5.94-4.48H5.39Z"/><path d="M21.06,5a1.31,1.31,0,0,1-2.62,0,1.29,1.29,0,0,1,1.32-1.32A1.25,1.25,0,0,1,21.06,5ZM18.71,19.93V8.31h2.11V19.93Z"/><path d="M26.41,13.64h.05c.29-.41.7-.91,1-1.32l3.41-4h2.54L29,13.08l5.11,6.85H31.5l-4-5.57-1.08,1.2v4.37H24.32v-17h2.09Z"/><path d="M36.76,14.5a3.71,3.71,0,0,0,4,4,7.63,7.63,0,0,0,3.22-.6l.36,1.52a9.56,9.56,0,0,1-3.87.72c-3.57,0-5.71-2.36-5.71-5.86S36.8,8,40.19,8C44,8,45,11.38,45,13.52a8.79,8.79,0,0,1-.07,1ZM43,13c0-1.34-.55-3.43-2.93-3.43-2.14,0-3.07,2-3.24,3.43Z"/><path class="cls-2" d="M69.76,14.84c-.18.95-1.1,4.14-1.41,5.09H54.1v-.86c2.79-.28,3-.43,3-3V3.86c0-2.6-.3-2.76-2.76-3V0h8.22V.86c-2.45.24-2.79.37-2.79,3V16.34c0,1.87.24,2.3,2,2.33l2.42,0c1.57,0,2-.18,2.73-.95a10.29,10.29,0,0,0,1.87-3.16Z"/><path d="M74.51,5a1.24,1.24,0,0,1-1.34,1.3A1.26,1.26,0,0,1,71.9,5a1.29,1.29,0,0,1,1.32-1.32A1.25,1.25,0,0,1,74.51,5ZM72.16,19.93V8.31h2.11V19.93Z"/><path d="M77.49,17.77a5.61,5.61,0,0,0,2.78.84c1.54,0,2.26-.77,2.26-1.73s-.6-1.56-2.16-2.14c-2.09-.74-3.07-1.89-3.07-3.29,0-1.87,1.51-3.41,4-3.41a5.84,5.84,0,0,1,2.85.72l-.53,1.54a4.46,4.46,0,0,0-2.37-.67c-1.25,0-2,.72-2,1.58s.7,1.39,2.21,2c2,.77,3,1.78,3,3.51,0,2-1.58,3.48-4.34,3.48a6.64,6.64,0,0,1-3.27-.8Z"/><path d="M89.83,5V8.31h3V9.92h-3v6.26c0,1.44.4,2.26,1.58,2.26a4.28,4.28,0,0,0,1.22-.15l.1,1.59a5.14,5.14,0,0,1-1.87.29,2.93,2.93,0,0,1-2.28-.89,4.33,4.33,0,0,1-.82-3V9.92H86V8.31h1.8V5.52Z"/></svg>